<svg width="621" height="638" viewBox="0 0 621 638" fill="none" xmlns="http://www.w3.org/2000/svg">
<path d="M200.5 324V503.5L0 637.5V459.5L200.5 324Z" fill="url(#paint0_linear_6_25)"/>
<path d="M200 324.5L323.5 424.5L200 504V324.5Z" fill="url(#paint1_linear_6_25)"/>
<path d="M323 424V606.5L199 503.5L323 424Z" fill="url(#paint2_linear_6_25)"/>
<path d="M620.5 223V404L322 606V425.5L620.5 223Z" fill="url(#paint3_linear_6_25)"/>
<path d="M420 313.5V134L620.5 0V178L420 313.5Z" fill="url(#paint4_linear_6_25)"/>
<path d="M420.5 313L297 213L420.5 133.5V313Z" fill="url(#paint5_linear_6_25)"/>
<path d="M297.5 213.5V31L421.5 134L297.5 213.5Z" fill="url(#paint6_linear_6_25)"/>
<path d="M0 414.5V233.5L298.5 31.5L298.5 212L0 414.5Z" fill="url(#paint7_linear_6_25)"/>
<defs>
<linearGradient id="paint0_linear_6_25" x1="201" y1="324" x2="-2.24951e-06" y2="637" gradientUnits="userSpaceOnUse">
<stop stop-color="#A1711D"/>
<stop offset="1" stop-color="#3B290B"/>
</linearGradient>
<linearGradient id="paint1_linear_6_25" x1="261.75" y1="324.5" x2="261.75" y2="504" gradientUnits="userSpaceOnUse">
<stop stop-color="#B4832F"/>
<stop offset="1" stop-color="#4E3914"/>
</linearGradient>
<linearGradient id="paint2_linear_6_25" x1="261" y1="424" x2="261" y2="606.5" gradientUnits="userSpaceOnUse">
<stop stop-color="#9C6D1A"/>
<stop offset="1" stop-color="#362609"/>
</linearGradient>
<linearGradient id="paint3_linear_6_25" x1="621" y1="223" x2="322" y2="606" gradientUnits="userSpaceOnUse">
<stop stop-color="#E7C062"/>
<stop offset="1" stop-color="#816B37"/>
</linearGradient>
<linearGradient id="paint4_linear_6_25" x1="419.5" y1="313.5" x2="620.5" y2="0.499989" gradientUnits="userSpaceOnUse">
<stop stop-color="#A1711D"/>
<stop offset="1" stop-color="#3B290B"/>
</linearGradient>
<linearGradient id="paint5_linear_6_25" x1="358.75" y1="313" x2="358.75" y2="133.5" gradientUnits="userSpaceOnUse">
<stop stop-color="#B4832F"/>
<stop offset="1" stop-color="#4E3914"/>
</linearGradient>
<linearGradient id="paint6_linear_6_25" x1="359.5" y1="213.5" x2="359.5" y2="31" gradientUnits="userSpaceOnUse">
<stop stop-color="#9C6D1A"/>
<stop offset="1" stop-color="#362609"/>
</linearGradient>
<linearGradient id="paint7_linear_6_25" x1="-0.499981" y1="414.5" x2="298.5" y2="31.5" gradientUnits="userSpaceOnUse">
<stop stop-color="#E7C062"/>
<stop offset="1" stop-color="#816B37"/>
</linearGradient>
</defs>
</svg>
